<?xml version="1.0" standalone="no"?><!DOCTYPE svg PUBLIC "-//W3C//DTD SVG 1.1//EN" "http://www.w3.org/Graphics/SVG/1.1/DTD/svg11.dtd"><svg t="1631786130682" class="icon" viewBox="0 0 1024 1024" version="1.1" xmlns="http://www.w3.org/2000/svg" p-id="24992" width="128" height="128" xmlns:xlink="http://www.w3.org/1999/xlink"><defs><style type="text/css"></style></defs><path d="M848 0H176C112.512 0 64 47.552 64 102.4v819.2c0 54.848 48.512 102.4 112 102.4h672c63.488 0 112-47.552 112-102.4V102.4c0-54.848-48.512-102.4-112-102.4zM515.712 775.296h-224a37.056 37.056 0 0 1-37.312-36.544c0-18.304 14.912-36.608 37.312-36.608h224c18.688 0 37.376 14.656 37.376 36.608a37.056 37.056 0 0 1-37.376 36.544zM736 548.544h-448A37.056 37.056 0 0 1 250.688 512c0-18.304 14.912-36.544 37.312-36.544h448c18.688 0 37.312 14.592 37.312 36.544a36.992 36.992 0 0 1-37.312 36.544z m0-226.688h-448a37.056 37.056 0 0 1-37.312-36.608c0-21.952 14.912-36.544 37.312-36.544h448c18.688 0 37.312 14.592 37.312 36.544 0 21.952-14.912 36.608-37.312 36.608z" p-id="24993" fill="#7f7fd5" data-spm-anchor-id="a313x.7781069.0.i14" class="selected"></path></svg>