<?xml version="1.0" standalone="no"?><!DOCTYPE svg PUBLIC "-//W3C//DTD SVG 1.1//EN" "http://www.w3.org/Graphics/SVG/1.1/DTD/svg11.dtd"><svg t="1631584421685" class="icon" viewBox="0 0 1365 1024" version="1.1" xmlns="http://www.w3.org/2000/svg" p-id="15700" xmlns:xlink="http://www.w3.org/1999/xlink" width="266.6015625" height="200"><defs><style type="text/css"></style></defs><path d="M1137.881212 874.433939c0.310303-6.516364 0.310303-12.722424 0.310303-19.238787 0-282.686061-228.072727-512-509.207273-512s-509.207273 229.313939-509.207272 512c0 6.516364 0.310303 13.032727 0.310303 19.238787h1017.793939z" fill="#EAF9F7" p-id="15701"></path><path d="M1052.237576 874.433939v-4.344242c0-238.62303-188.664242-431.941818-421.701818-431.941818S209.144242 631.466667 209.144242 869.779394v1.551515l843.093334 3.10303z" fill="#D9F3F9" p-id="15702"></path><path d="M960.077576 871.330909v-1.551515c0-183.699394-147.393939-332.334545-329.541818-332.334546S300.993939 686.390303 300.993939 869.779394v1.551515h659.083637z" fill="#CAEDF9" p-id="15703"></path><path d="M96.193939 866.986667h-26.68606c-4.033939 0-7.447273 3.413333-7.447273 7.447272s3.413333 7.447273 7.447273 7.447273H96.193939c4.033939 0 7.447273-3.413333 7.447273-7.447273s-3.413333-7.447273-7.447273-7.447272zM765.517576 874.433939c0-4.033939-3.413333-7.447273-7.447273-7.447272H120.087273c-4.033939 0-7.447273 3.413333-7.447273 7.447272s3.413333 7.447273 7.447273 7.447273h638.293333c4.033939 0 7.13697-3.413333 7.13697-7.447273zM805.85697 881.881212h92.16c4.033939 0 7.447273-3.413333 7.447272-7.447273s-3.413333-7.447273-7.447272-7.447272h-92.16c-4.033939 0-7.447273 3.413333-7.447273 7.447272s3.10303 7.447273 7.447273 7.447273zM1188.770909 866.986667H918.49697c-4.033939 0-7.447273 3.413333-7.447273 7.447272s3.413333 7.447273 7.447273 7.447273h270.273939c4.033939 0 7.447273-3.413333 7.447273-7.447273s-3.413333-7.447273-7.447273-7.447272zM1248.038788 866.986667h-38.477576c-4.033939 0-7.447273 3.413333-7.447273 7.447272s3.413333 7.447273 7.447273 7.447273h38.477576c4.033939 0 7.447273-3.413333 7.447273-7.447273s-3.413333-7.447273-7.447273-7.447272zM678.012121 947.044848H574.060606c-4.033939 0-7.447273 3.413333-7.447273 7.447273 0 4.033939 3.413333 7.447273 7.447273 7.447273h103.951515c4.033939 0 7.447273-3.413333 7.447273-7.447273 0-4.033939-3.413333-7.447273-7.447273-7.447273zM939.287273 947.044848H713.69697c-4.033939 0-7.447273 3.413333-7.447273 7.447273 0 4.033939 3.413333 7.447273 7.447273 7.447273h225.590303c4.033939 0 7.447273-3.413333 7.447272-7.447273 0-4.033939-3.413333-7.447273-7.447272-7.447273zM1001.658182 947.044848h-29.789091c-4.033939 0-7.447273 3.413333-7.447273 7.447273 0 4.033939 3.413333 7.447273 7.447273 7.447273h29.789091c4.033939 0 7.447273-3.413333 7.447273-7.447273 0-4.033939-3.413333-7.447273-7.447273-7.447273zM1099.713939 947.044848h-65.163636c-4.033939 0-7.447273 3.413333-7.447273 7.447273 0 4.033939 3.413333 7.447273 7.447273 7.447273h65.163636c4.033939 0 7.447273-3.413333 7.447273-7.447273 0-4.033939-3.413333-7.447273-7.447273-7.447273z" fill="#096DD9" p-id="15704"></path><path d="M930.288485 362.123636c-7.447273 0-14.584242-2.792727-19.859394-8.378181-5.275152-5.275152-8.378182-12.412121-8.378182-19.859394 0-7.447273 2.792727-14.584242 8.378182-19.859394 5.275152-5.275152 12.412121-8.378182 19.859394-8.378182s14.584242 2.792727 19.859394 8.378182c5.275152 5.275152 8.378182 12.412121 8.378182 19.859394 0 7.447273-2.792727 14.584242-8.378182 19.859394-5.275152 5.585455-12.101818 8.378182-19.859394 8.378181z m0-47.476363c-5.275152 0-9.929697 1.861818-13.653333 5.585454-3.723636 3.723636-5.585455 8.378182-5.585455 13.653334s1.861818 9.929697 5.585455 13.653333c3.723636 3.723636 8.378182 5.585455 13.653333 5.585454s9.929697-1.861818 13.653333-5.585454c3.723636-3.723636 5.585455-8.378182 5.585455-13.653333s-1.861818-9.929697-5.585455-13.653334c-3.413333-3.413333-8.378182-5.585455-13.653333-5.585454z" fill="#5CDBD3" p-id="15705"></path><path d="M286.72 300.993939c-5.895758 0-11.481212-1.861818-16.446061-5.895757-5.275152-4.344242-8.378182-10.550303-8.688484-17.066667-0.620606-6.826667 1.551515-13.34303 5.895757-18.307879 8.998788-10.550303 25.134545-11.791515 35.684849-2.792727 10.550303 8.998788 11.791515 25.134545 2.792727 35.684849C300.993939 297.890909 293.85697 300.993939 286.72 300.993939z m0-41.580606c-4.654545 0-9.309091 1.861818-12.412121 5.585455-2.792727 3.413333-4.344242 7.447273-3.723637 11.791515 0.310303 4.344242 2.482424 8.378182 5.585455 11.170909 6.826667 5.895758 17.066667 4.964848 22.962424-1.861818 5.895758-6.826667 4.964848-17.066667-1.861818-22.962424-3.10303-2.482424-6.826667-3.723636-10.550303-3.723637z" fill="#5CDBD3" p-id="15706"></path><path d="M1019.345455 504.86303h-11.791516v-11.791515c0-2.482424-1.861818-4.344242-4.344242-4.344242-2.482424 0-4.344242 1.861818-4.344242 4.344242v11.791515H986.763636c-2.482424 0-4.344242 1.861818-4.344242 4.344243 0 2.482424 1.861818 4.344242 4.344242 4.344242h11.791516v11.791515c0 2.482424 1.861818 4.344242 4.344242 4.344243 2.482424 0 4.344242-1.861818 4.344242-4.344243v-11.791515h11.791516c2.482424 0 4.344242-1.861818 4.344242-4.344242 0.620606-2.482424-1.551515-4.344242-4.033939-4.344243zM182.147879 579.025455h-11.791515v-11.791516c0-2.482424-1.861818-4.344242-4.344243-4.344242s-4.654545 1.861818-4.654545 4.344242v11.791516h-11.791515c-2.482424 0-4.344242 1.861818-4.344243 4.344242s1.861818 4.344242 4.344243 4.344242H161.357576v11.791516c0 2.482424 1.861818 4.344242 4.344242 4.344242s4.344242-1.861818 4.344243-4.344242v-11.791516h11.791515c2.482424 0 4.344242-1.861818 4.344242-4.344242s-1.551515-4.344242-4.033939-4.344242z" fill="#FFC53D" p-id="15707"></path><path d="M1049.134545 389.12c-2.482424 0-4.344242-1.861818-4.344242-4.344242v-14.894546c0-2.482424 1.861818-4.344242 4.344242-4.344242s4.344242 1.861818 4.344243 4.344242v14.894546c0 2.172121-1.861818 4.344242-4.344243 4.344242zM1036.412121 394.084848c-1.241212 0-2.172121-0.310303-3.10303-1.241212l-10.550303-10.550303c-1.861818-1.861818-1.861818-4.654545 0-6.20606 1.861818-1.861818 4.654545-1.861818 6.20606 0l10.550304 10.550303c1.861818 1.861818 1.861818 4.654545 0 6.20606-0.620606 0.930909-1.861818 1.241212-3.103031 1.241212zM1031.447273 406.807273h-14.894546c-2.482424 0-4.344242-1.861818-4.344242-4.344243 0-2.482424 1.861818-4.344242 4.344242-4.344242h14.894546c2.482424 0 4.344242 1.861818 4.344242 4.344242 0 2.482424-1.861818 4.344242-4.344242 4.344243zM1026.172121 429.769697c-1.241212 0-2.172121-0.310303-3.10303-1.241212-1.861818-1.861818-1.861818-4.654545 0-6.206061l10.550303-10.550303c1.861818-1.861818 4.654545-1.861818 6.206061 0 1.861818 1.861818 1.861818 4.654545 0 6.206061l-10.550303 10.550303c-0.930909 0.930909-2.172121 1.241212-3.103031 1.241212zM1049.134545 439.389091c-2.482424 0-4.344242-1.861818-4.344242-4.344243v-14.894545c0-2.482424 1.861818-4.344242 4.344242-4.344242s4.344242 1.861818 4.344243 4.344242v14.894545c0 2.482424-1.861818 4.344242-4.344243 4.344243zM1072.09697 429.769697c-1.241212 0-2.172121-0.310303-3.103031-1.241212l-10.550303-10.550303c-1.861818-1.861818-1.861818-4.654545 0-6.206061 1.861818-1.861818 4.654545-1.861818 6.206061 0l10.550303 10.550303c1.861818 1.861818 1.861818 4.654545 0 6.206061-0.620606 0.930909-1.861818 1.241212-3.10303 1.241212zM1081.716364 406.807273h-14.894546c-2.482424 0-4.344242-1.861818-4.344242-4.344243 0-2.482424 1.861818-4.344242 4.344242-4.344242h14.894546c2.482424 0 4.344242 1.861818 4.344242 4.344242 0.310303 2.482424-1.861818 4.344242-4.344242 4.344243zM1061.85697 394.084848c-1.241212 0-2.172121-0.310303-3.103031-1.241212-1.861818-1.861818-1.861818-4.654545 0-6.20606l10.550303-10.550303c1.861818-1.861818 4.654545-1.861818 6.206061 0 1.861818 1.861818 1.861818 4.654545 0 6.20606l-10.550303 10.550303c-0.930909 0.930909-2.172121 1.241212-3.10303 1.241212z" fill="#FF85C0" p-id="15708"></path><path d="M259.413333 454.283636c-2.482424 0-4.344242-1.861818-4.344242-4.344242v-14.894546c0-2.482424 1.861818-4.344242 4.344242-4.344242 2.482424 0 4.344242 1.861818 4.344243 4.344242v14.894546c0.310303 2.482424-1.861818 4.344242-4.344243 4.344242zM247.001212 459.558788c-1.241212 0-2.172121-0.310303-3.10303-1.241212l-10.550303-10.550303c-1.861818-1.861818-1.861818-4.654545 0-6.206061 1.861818-1.861818 4.654545-1.861818 6.20606 0l10.550303 10.550303c1.861818 1.861818 1.861818 4.654545 0 6.206061-0.930909 0.620606-2.172121 1.241212-3.10303 1.241212zM241.726061 471.970909h-14.894546c-2.482424 0-4.344242-1.861818-4.344242-4.344242s1.861818-4.344242 4.344242-4.344243h14.894546c2.482424 0 4.344242 1.861818 4.344242 4.344243s-1.861818 4.344242-4.344242 4.344242zM236.450909 495.243636c-1.241212 0-2.172121-0.310303-3.10303-1.241212-1.861818-1.861818-1.861818-4.654545 0-6.20606l10.550303-10.550303c1.861818-1.861818 4.654545-1.861818 6.20606 0 1.861818 1.861818 1.861818 4.654545 0 6.20606l-10.550303 10.550303c-0.930909 0.620606-2.172121 1.241212-3.10303 1.241212zM259.413333 504.86303c-2.482424 0-4.344242-1.861818-4.344242-4.344242v-14.894546c0-2.482424 1.861818-4.344242 4.344242-4.344242 2.482424 0 4.344242 1.861818 4.344243 4.344242v14.894546c0.310303 2.172121-1.861818 4.344242-4.344243 4.344242zM282.686061 495.243636c-1.241212 0-2.172121-0.310303-3.103031-1.241212l-10.550303-10.550303c-1.861818-1.861818-1.861818-4.654545 0-6.20606 1.861818-1.861818 4.654545-1.861818 6.206061 0l10.550303 10.550303c1.861818 1.861818 1.861818 4.654545 0 6.20606-0.930909 0.620606-2.172121 1.241212-3.10303 1.241212zM291.995152 471.970909h-14.894546c-2.482424 0-4.344242-1.861818-4.344242-4.344242s1.861818-4.344242 4.344242-4.344243h14.894546c2.482424 0 4.344242 1.861818 4.344242 4.344243s-1.861818 4.344242-4.344242 4.344242zM272.135758 459.558788c-1.241212 0-2.172121-0.310303-3.103031-1.241212-1.861818-1.861818-1.861818-4.654545 0-6.206061l10.550303-10.550303c1.861818-1.861818 4.654545-1.861818 6.206061 0 1.861818 1.861818 1.861818 4.654545 0 6.206061l-10.550303 10.550303c-0.930909 0.620606-2.172121 1.241212-3.10303 1.241212z" fill="#FF85C0" p-id="15709"></path><path d="M1066.201212 638.293333l28.858182 20.48 7.13697-42.511515zM193.939394 808.649697l20.48-28.858182-42.511515-7.13697z" fill="#85A5FF" p-id="15710"></path><path d="M632.087273 439.699394m-210.695758 0a210.695758 210.695758 0 1 0 421.391515 0 210.695758 210.695758 0 1 0-421.391515 0Z" fill="#FFC53D" p-id="15711"></path><path d="M632.087273 439.699394m-169.115152 0a169.115152 169.115152 0 1 0 338.230303 0 169.115152 169.115152 0 1 0-338.230303 0Z" fill="#FFFFFF" p-id="15712"></path><path d="M679.873939 369.570909c-4.654545 0-9.619394-1.551515-13.653333-4.344242-8.067879-5.895758-17.066667-10.24-26.375758-13.653334-10.860606-3.723636-22.341818-5.585455-34.133333-5.585454-13.032727 0-23.893333-10.550303-23.893333-23.893334s10.550303-23.893333 23.893333-23.893333c17.066667 0 33.82303 2.792727 49.648485 8.378182 13.653333 4.654545 26.686061 11.170909 38.477576 19.549091 10.860606 7.447273 13.34303 22.341818 5.585454 33.202424-4.964848 6.826667-12.101818 10.24-19.549091 10.24z" fill="#FFC53D" p-id="15713"></path><path d="M820.441212 795.61697c-25.444848 14.894545-58.33697 5.895758-72.921212-19.549091l-53.372121-92.470303 92.470303-53.372121 53.372121 92.470303c14.894545 25.444848 6.206061 58.026667-19.549091 72.921212z" fill="#69C0FF" p-id="15714"></path><path d="M666.220606 230.865455c8.067879 1.861818 16.446061 4.344242 24.203636 7.136969 0.930909 0.310303 1.551515 0.310303 2.482425 0.310303 3.10303 0 5.895758-1.861818 7.136969-4.964848 1.241212-3.723636-0.620606-8.067879-4.344242-9.619394-8.378182-3.10303-17.066667-5.585455-26.065455-7.447273-4.033939-0.930909-8.067879 1.551515-8.998787 5.585455-0.930909 4.033939 1.861818 8.067879 5.585454 8.998788zM837.507879 700.974545l-21.100606-36.615757c-2.172121-3.413333-6.516364-4.654545-10.24-2.792727-3.413333 2.172121-4.654545 6.516364-2.792728 10.24l21.100607 36.615757c12.722424 22.031515 5.275152 50.269091-16.756364 62.991515-10.550303 6.206061-22.962424 7.757576-35.064243 4.654546-11.791515-3.10303-21.721212-10.860606-27.927272-21.410909l-53.372121-92.470303c-2.172121-3.413333-6.516364-4.654545-10.24-2.792728-3.413333 2.172121-4.654545 6.516364-2.792728 10.24l53.372121 92.470303c8.067879 13.963636 21.100606 24.203636 36.926061 28.237576 5.275152 1.551515 10.550303 2.172121 15.825455 2.172121 10.550303 0 21.100606-2.792727 30.409697-8.067878 13.963636-8.067879 24.203636-21.100606 28.237575-36.926061 4.964848-16.135758 2.792727-32.581818-5.585454-46.545455zM774.206061 605.711515c-3.413333 2.172121-4.654545 6.516364-2.792728 10.24l13.032728 22.652121c1.241212 2.482424 3.723636 3.723636 6.516363 3.723637 1.241212 0 2.482424-0.310303 3.723637-0.930909 3.413333-2.172121 4.654545-6.516364 2.792727-10.24l-13.032727-22.652122c-2.172121-3.723636-6.826667-4.964848-10.24-2.792727z" fill="#096DD9" p-id="15715"></path><path d="M839.990303 429.149091c0-78.196364-42.201212-151.117576-110.467879-189.905455-3.723636-2.172121-8.067879-0.930909-10.24 2.792728-2.172121 3.413333-0.930909 8.067879 2.792728 10.24 63.612121 35.995152 103.020606 103.951515 103.020606 176.872727 0 112.019394-91.229091 203.248485-203.248485 203.248485-6.516364 0-12.722424-0.310303-19.238788-0.930909-12.412121-1.241212-24.513939-3.413333-36.305455-6.826667-86.884848-24.824242-147.704242-105.192727-147.704242-195.801212 0-112.019394 91.229091-203.248485 203.248485-203.248485 3.413333 0 6.826667 0 10.24 0.310303 4.033939 0.310303 7.447273-3.10303 7.757575-7.13697 0.310303-4.033939-3.10303-7.447273-7.136969-7.757575-3.723636-0.310303-7.447273-0.310303-10.860606-0.310303-120.397576 0-218.14303 97.745455-218.143031 218.14303 0 97.124848 65.163636 183.389091 158.564849 210.075151 12.722424 3.723636 25.755152 6.206061 39.098182 7.447273 6.826667 0.620606 13.653333 0.930909 20.48 0.930909 120.087273 0 218.14303-97.745455 218.14303-218.14303z" fill="#096DD9" p-id="15716"></path><path d="M444.974545 429.149091c0 97.435152 79.127273 176.562424 176.562425 176.562424s176.562424-79.127273 176.562424-176.562424-79.127273-176.562424-176.562424-176.562424-176.562424 79.127273-176.562425 176.562424z m338.540607 0c0 89.367273-72.610909 161.667879-161.667879 161.667879s-161.667879-72.610909-161.667879-161.667879c0-89.05697 72.610909-161.667879 161.667879-161.667879s161.667879 72.610909 161.667879 161.667879z" fill="#096DD9" p-id="15717"></path><path d="M574.060606 322.404848c0 17.066667 13.963636 31.030303 31.030303 31.030304 10.860606 0 21.721212 1.861818 31.961212 5.275151 8.688485 3.10303 17.066667 7.13697 24.51394 12.722424 5.275152 3.723636 11.481212 5.585455 17.997575 5.585455 10.24 0 19.549091-4.964848 25.444849-13.032727 4.654545-6.826667 6.826667-15.204848 5.275151-23.272728-1.551515-8.067879-5.895758-15.515152-12.722424-20.169697-12.412121-8.688485-26.065455-15.825455-40.339394-20.790303-16.756364-5.895758-34.133333-8.688485-52.130909-8.688485-17.066667 0-31.030303 13.963636-31.030303 31.340606z m115.122424 10.24c3.413333 2.482424 5.895758 6.206061 6.516364 10.550304 0.620606 4.344242-0.310303 8.688485-2.792727 12.101818-3.10303 4.344242-8.067879 6.826667-13.343031 6.826666-3.413333 0-6.516364-0.930909-9.309091-3.10303-8.688485-6.206061-18.307879-11.170909-28.237575-14.584242-11.791515-4.033939-24.203636-6.206061-36.615758-6.206061-8.998788 0-16.446061-7.447273-16.44606-16.446061s7.447273-16.446061 16.44606-16.44606c16.135758 0 31.961212 2.792727 47.166061 7.757576 13.032727 5.275152 25.444848 11.481212 36.615757 19.54909z" fill="#096DD9" p-id="15718"></path></svg>