<?xml version="1.0" standalone="no"?><!DOCTYPE svg PUBLIC "-//W3C//DTD SVG 1.1//EN" "http://www.w3.org/Graphics/SVG/1.1/DTD/svg11.dtd"><svg t="1631629433378" class="icon" viewBox="0 0 1024 1024" version="1.1" xmlns="http://www.w3.org/2000/svg" p-id="17741" xmlns:xlink="http://www.w3.org/1999/xlink" width="200" height="200"><defs><style type="text/css"></style></defs><path d="M235.115 874.304h108.777V796.9H235.115z m108.777-156.856H235.115v52.172h108.777z m-54.9-716.084l-98.206 132.987h196.412z m54.9 344.061H235.115v38.532h108.777z m0 295.982H235.115v38.532h108.777zM821.28 753.252c-34.1-23.187-25.575-16.368-36.827-30.69a409.19 409.19 0 0 1-27.28-47.056c-14.662-25.234-31.37-51.149-43.306-73.996s-22.164-22.164-34.099-34.099a146.627 146.627 0 0 0-44.329-34.099 21.142 21.142 0 0 0-24.551 7.843c-18.414-16.027-14.663-16.027-27.962-21.824s-21.823 8.866-21.823 8.866a79.11 79.11 0 0 0-15.686-11.935 168.45 168.45 0 0 0-18.754-7.16c-10.912-4.433-28.303 7.842-32.395 13.298s-5.115 12.958-8.525 20.119a45.352 45.352 0 0 0-4.773 25.233s-22.165-17.39-34.1-25.915-37.168-18.414-51.83-25.916c-28.303-14.662-39.556-12.616-43.648 2.728s13.64 38.191 25.234 48.762a40.578 40.578 0 0 0 22.505 11.935 39.214 39.214 0 0 0 9.207 14.322c6.479 6.138 15.004 17.05 21.142 22.164s9.206 6.138 12.275 9.207 0 7.16 10.571 17.39a191.297 191.297 0 0 1 24.552 45.012c5.115 11.252 9.888 22.505 13.298 31.712a124.462 124.462 0 0 1 5.797 29.666 21.483 21.483 0 0 0 2.728 8.184 23.187 23.187 0 0 0-5.456 4.092 13.98 13.98 0 0 0-3.41 6.82h-7.501a8.866 8.866 0 0 0-2.728-5.456 65.47 65.47 0 0 0-7.843-7.843l-11.594-10.912a18.755 18.755 0 0 0-12.276-6.138 143.558 143.558 0 0 0-16.026-24.892 60.697 60.697 0 0 0-34.1-18.755 30.348 30.348 0 0 0-28.984 3.07c-8.866 6.478-7.502 20.118 0 31.37a153.106 153.106 0 0 0 12.617 15.686 115.255 115.255 0 0 1 19.777 43.647c5.797 10.23 11.253 10.912 20.119 20.46s15.686 12.958 22.846 20.8 19.437 23.188 22.506 25.575a477.39 477.39 0 0 0 106.048 28.984c25.234 6.82 45.693-3.75 68.199 3.07a322.238 322.238 0 0 1 41.26 24.892c65.13 34.099 144.24-74.678 151.06-130.26a34.1 34.1 0 0 0-9.89-28.984zM287.287 1024l98.206-132.987H189.08z m54.9-769.62H233.41v52.172h108.777z m0-104.343H233.41v77.405h108.777z" fill="#ffffff" p-id="17742"></path></svg>