<?xml version="1.0" standalone="no"?><!DOCTYPE svg PUBLIC "-//W3C//DTD SVG 1.1//EN" "http://www.w3.org/Graphics/SVG/1.1/DTD/svg11.dtd"><svg t="1631785816348" class="icon" viewBox="0 0 1024 1024" version="1.1" xmlns="http://www.w3.org/2000/svg" p-id="5789" xmlns:xlink="http://www.w3.org/1999/xlink" width="200" height="200"><defs><style type="text/css"></style></defs><path d="M128 42.666667m85.333333 0l597.333334 0q85.333333 0 85.333333 85.333333l0 768q0 85.333333-85.333333 85.333333l-597.333334 0q-85.333333 0-85.333333-85.333333l0-768q0-85.333333 85.333333-85.333333Z" fill="#7f7fd5" fill-opacity=".4" p-id="5790" data-spm-anchor-id="a313x.7781069.0.i0" class=""></path><path d="M256 597.333333m21.333333 0l170.666667 0q21.333333 0 21.333333 21.333334l0 42.666666q0 21.333333-21.333333 21.333334l-170.666667 0q-21.333333 0-21.333333-21.333334l0-42.666666q0-21.333333 21.333333-21.333334Z" fill="#7f7fd5" p-id="5791" data-spm-anchor-id="a313x.7781069.0.i6" class=""></path><path d="M256 341.333333m21.333333 0l384 0q21.333333 0 21.333334 21.333334l0 42.666666q0 21.333333-21.333334 21.333334l-384 0q-21.333333 0-21.333333-21.333334l0-42.666666q0-21.333333 21.333333-21.333334Z" fill="#7f7fd5" p-id="5792" data-spm-anchor-id="a313x.7781069.0.i5" class=""></path><path d="M901.716249 237.730537m36.950418 21.333334l0 0q36.950417 21.333333 15.617084 58.28375l-277.333334 480.355424q-21.333333 36.950417-58.28375 15.617084l0 0q-36.950417-21.333333-15.617084-58.28375l277.333333-480.355424q21.333333-36.950417 58.283751-15.617084Z" fill="#7f7fd5" p-id="5793" data-spm-anchor-id="a313x.7781069.0.i4" class=""></path></svg>